<svg xmlns="http://www.w3.org/2000/svg" viewBox="0 0 1422 800"><g fill="none" stroke="hsl(105, 69%, 30%)" stroke-width="2"><path d="M40 0 0 40M40 0l40 40M80 0l40 40M120 0l40 40M160 0l40 40M240 0l-40 40M240 0l40 40M280 0l40 40M360 0l-40 40M360 0l40 40M440 0l-40 40M440 0l40 40M480 0l40 40M560 0l-40 40M600 0l-40 40M640 0l-40 40M640 0l40 40M720 0l-40 40M720 0l40 40M760 0l40 40M840 0l-40 40M880 0l-40 40M920 0l-40 40M920 0l40 40M1000 0l-40 40M1000 0l40 40M1040 0l40 40M1120 0l-40 40M1120 0l40 40M1200 0l-40 40M1200 0l40 40M1240 0l40 40M1280 0l40 40M1320 0l40 40M1360 0l40 40M1440 0l-40 40" opacity=".05"/><path d="M40 40 0 80M40 40l40 40M80 40l40 40M160 40l-40 40M160 40l40 40M200 40l40 40M240 40l40 40M320 40l-40 40M360 40l-40 40M400 40l-40 40M440 40l-40 40M480 40l-40 40M520 40l-40 40M560 40l-40 40M560 40l40 40M640 40l-40 40M640 40l40 40M680 40l40 40M760 40l-40 40M800 40l-40 40M800 40l40 40M880 40l-40 40M920 40l-40 40M920 40l40 40M960 40l40 40M1000 40l40 40M1080 40l-40 40M1120 40l-40 40M1160 40l-40 40M1160 40l40 40M1200 40l40 40M1280 40l-40 40M1280 40l40 40M1360 40l-40 40M1360 40l40 40M1400 40l40 40" opacity=".1"/><path d="M40 80 0 120M80 80l-40 40M80 80l40 40M120 80l40 40M200 80l-40 40M240 80l-40 40M240 80l40 40M320 80l-40 40M360 80l-40 40M360 80l40 40M440 80l-40 40M480 80l-40 40M480 80l40 40M560 80l-40 40M560 80l40 40M600 80l40 40M640 80l40 40M680 80l40 40M760 80l-40 40M800 80l-40 40M800 80l40 40M880 80l-40 40M920 80l-40 40M960 80l-40 40M960 80l40 40M1040 80l-40 40M1040 80l40 40M1080 80l40 40M1160 80l-40 40M1200 80l-40 40M1240 80l-40 40M1280 80l-40 40M1280 80l40 40M1320 80l40 40M1360 80l40 40M1400 80l40 40" opacity=".15"/><path d="m0 120 40 40M80 120l-40 40M120 120l-40 40M160 120l-40 40M160 120l40 40M240 120l-40 40M240 120l40 40M280 120l40 40M360 120l-40 40M360 120l40 40M440 120l-40 40M480 120l-40 40M520 120l-40 40M520 120l40 40M600 120l-40 40M640 120l-40 40M640 120l40 40M680 120l40 40M760 120l-40 40M760 120l40 40M800 120l40 40M840 120l40 40M920 120l-40 40M920 120l40 40M1000 120l-40 40M1000 120l40 40M1040 120l40 40M1120 120l-40 40M1120 120l40 40M1160 120l40 40M1240 120l-40 40M1280 120l-40 40M1280 120l40 40M1320 120l40 40M1400 120l-40 40M1400 120l40 40" opacity=".19"/><path d="m0 160 40 40M80 160l-40 40M80 160l40 40M160 160l-40 40M160 160l40 40M240 160l-40 40M280 160l-40 40M280 160l40 40M320 160l40 40M400 160l-40 40M440 160l-40 40M480 160l-40 40M520 160l-40 40M560 160l-40 40M600 160l-40 40M600 160l40 40M640 160l40 40M680 160l40 40M760 160l-40 40M760 160l40 40M840 160l-40 40M840 160l40 40M880 160l40 40M920 160l40 40M960 160l40 40M1000 160l40 40M1040 160l40 40M1120 160l-40 40M1160 160l-40 40M1200 160l-40 40M1200 160l40 40M1240 160l40 40M1320 160l-40 40M1320 160l40 40M1400 160l-40 40M1440 160l-40 40" opacity=".24"/><path d="M40 200 0 240M40 200l40 40M120 200l-40 40M160 200l-40 40M200 200l-40 40M240 200l-40 40M280 200l-40 40M320 200l-40 40M360 200l-40 40M360 200l40 40M440 200l-40 40M440 200l40 40M480 200l40 40M520 200l40 40M600 200l-40 40M600 200l40 40M680 200l-40 40M720 200l-40 40M760 200l-40 40M760 200l40 40M840 200l-40 40M840 200l40 40M920 200l-40 40M920 200l40 40M1000 200l-40 40M1000 200l40 40M1040 200l40 40M1120 200l-40 40M1120 200l40 40M1160 200l40 40M1240 200l-40 40M1280 200l-40 40M1320 200l-40 40M1320 200l40 40M1360 200l40 40M1400 200l40 40" opacity=".29"/><path d="M40 240 0 280M40 240l40 40M80 240l40 40M160 240l-40 40M160 240l40 40M200 240l40 40M240 240l40 40M280 240l40 40M360 240l-40 40M400 240l-40 40M440 240l-40 40M480 240l-40 40M480 240l40 40M520 240l40 40M600 240l-40 40M640 240l-40 40M680 240l-40 40M720 240l-40 40M760 240l-40 40M800 240l-40 40M800 240l40 40M840 240l40 40M920 240l-40 40M920 240l40 40M960 240l40 40M1000 240l40 40M1080 240l-40 40M1120 240l-40 40M1160 240l-40 40M1200 240l-40 40M1200 240l40 40M1280 240l-40 40M1280 240l40 40M1320 240l40 40M1360 240l40 40M1440 240l-40 40" opacity=".33"/><path d="m0 280 40 40M80 280l-40 40M80 280l40 40M120 280l40 40M200 280l-40 40M240 280l-40 40M280 280l-40 40M280 280l40 40M360 280l-40 40M400 280l-40 40M400 280l40 40M480 280l-40 40M480 280l40 40M520 280l40 40M600 280l-40 40M600 280l40 40M680 280l-40 40M680 280l40 40M760 280l-40 40M760 280l40 40M840 280l-40 40M880 280l-40 40M920 280l-40 40M960 280l-40 40M1000 280l-40 40M1040 280l-40 40M1080 280l-40 40M1080 280l40 40M1120 280l40 40M1160 280l40 40M1240 280l-40 40M1280 280l-40 40M1280 280l40 40M1360 280l-40 40M1400 280l-40 40M1400 280l40 40" opacity=".38"/><path d="M40 320 0 360M40 320l40 40M80 320l40 40M160 320l-40 40M200 320l-40 40M200 320l40 40M240 320l40 40M320 320l-40 40M360 320l-40 40M360 320l40 40M440 320l-40 40M480 320l-40 40M480 320l40 40M560 320l-40 40M600 320l-40 40M600 320l40 40M640 320l40 40M720 320l-40 40M720 320l40 40M800 320l-40 40M840 320l-40 40M880 320l-40 40M880 320l40 40M960 320l-40 40M960 320l40 40M1040 320l-40 40M1040 320l40 40M1120 320l-40 40M1160 320l-40 40M1200 320l-40 40M1240 320l-40 40M1280 320l-40 40M1320 320l-40 40M1360 320l-40 40M1400 320l-40 40M1440 320l-40 40" opacity=".43"/><path d="m0 360 40 40M40 360l40 40M120 360l-40 40M160 360l-40 40M200 360l-40 40M240 360l-40 40M280 360l-40 40M280 360l40 40M320 360l40 40M360 360l40 40M440 360l-40 40M440 360l40 40M480 360l40 40M560 360l-40 40M560 360l40 40M640 360l-40 40M640 360l40 40M720 360l-40 40M720 360l40 40M800 360l-40 40M800 360l40 40M880 360l-40 40M920 360l-40 40M920 360l40 40M960 360l40 40M1000 360l40 40M1080 360l-40 40M1080 360l40 40M1160 360l-40 40M1200 360l-40 40M1240 360l-40 40M1280 360l-40 40M1280 360l40 40M1360 360l-40 40M1400 360l-40 40M1440 360l-40 40" opacity=".48"/><path d="m0 400 40 40M80 400l-40 40M120 400l-40 40M160 400l-40 40M200 400l-40 40M200 400l40 40M280 400l-40 40M320 400l-40 40M360 400l-40 40M400 400l-40 40M440 400l-40 40M480 400l-40 40M480 400l40 40M520 400l40 40M600 400l-40 40M640 400l-40 40M680 400l-40 40M680 400l40 40M760 400l-40 40M760 400l40 40M840 400l-40 40M840 400l40 40M880 400l40 40M960 400l-40 40M960 400l40 40M1040 400l-40 40M1040 400l40 40M1080 400l40 40M1160 400l-40 40M1160 400l40 40M1240 400l-40 40M1240 400l40 40M1320 400l-40 40M1320 400l40 40M1360 400l40 40M1400 400l40 40" opacity=".53"/><path d="m0 440 40 40M40 440l40 40M120 440l-40 40M120 440l40 40M200 440l-40 40M240 440l-40 40M280 440l-40 40M280 440l40 40M360 440l-40 40M360 440l40 40M440 440l-40 40M440 440l40 40M520 440l-40 40M560 440l-40 40M600 440l-40 40M640 440l-40 40M680 440l-40 40M680 440l40 40M720 440l40 40M760 440l40 40M800 440l40 40M840 440l40 40M920 440l-40 40M920 440l40 40M960 440l40 40M1040 440l-40 40M1080 440l-40 40M1120 440l-40 40M1160 440l-40 40M1160 440l40 40M1240 440l-40 40M1240 440l40 40M1280 440l40 40M1360 440l-40 40M1400 440l-40 40M1440 440l-40 40" opacity=".57"/><path d="M40 480 0 520M80 480l-40 40M80 480l40 40M160 480l-40 40M160 480l40 40M200 480l40 40M280 480l-40 40M280 480l40 40M320 480l40 40M400 480l-40 40M440 480l-40 40M440 480l40 40M480 480l40 40M560 480l-40 40M600 480l-40 40M640 480l-40 40M680 480l-40 40M720 480l-40 40M760 480l-40 40M800 480l-40 40M840 480l-40 40M880 480l-40 40M880 480l40 40M960 480l-40 40M1000 480l-40 40M1000 480l40 40M1080 480l-40 40M1080 480l40 40M1120 480l40 40M1160 480l40 40M1200 480l40 40M1240 480l40 40M1280 480l40 40M1320 480l40 40M1360 480l40 40M1440 480l-40 40" opacity=".62"/><path d="m0 520 40 40M40 520l40 40M120 520l-40 40M160 520l-40 40M160 520l40 40M200 520l40 40M280 520l-40 40M280 520l40 40M360 520l-40 40M360 520l40 40M400 520l40 40M440 520l40 40M480 520l40 40M520 520l40 40M560 520l40 40M600 520l40 40M640 520l40 40M720 520l-40 40M760 520l-40 40M800 520l-40 40M800 520l40 40M880 520l-40 40M880 520l40 40M920 520l40 40M960 520l40 40M1040 520l-40 40M1080 520l-40 40M1080 520l40 40M1160 520l-40 40M1200 520l-40 40M1240 520l-40 40M1240 520l40 40M1320 520l-40 40M1320 520l40 40M1400 520l-40 40M1440 520l-40 40" opacity=".67"/><path d="m0 560 40 40M40 560l40 40M80 560l40 40M120 560l40 40M160 560l40 40M240 560l-40 40M240 560l40 40M320 560l-40 40M360 560l-40 40M400 560l-40 40M440 560l-40 40M480 560l-40 40M480 560l40 40M560 560l-40 40M560 560l40 40M600 560l40 40M640 560l40 40M680 560l40 40M720 560l40 40M760 560l40 40M840 560l-40 40M840 560l40 40M920 560l-40 40M920 560l40 40M1000 560l-40 40M1040 560l-40 40M1080 560l-40 40M1120 560l-40 40M1120 560l40 40M1200 560l-40 40M1240 560l-40 40M1240 560l40 40M1320 560l-40 40M1320 560l40 40M1360 560l40 40M1440 560l-40 40" opacity=".71"/><path d="m0 600 40 40M80 600l-40 40M120 600l-40 40M120 600l40 40M160 600l40 40M200 600l40 40M280 600l-40 40M280 600l40 40M320 600l40 40M400 600l-40 40M440 600l-40 40M480 600l-40 40M480 600l40 40M520 600l40 40M600 600l-40 40M600 600l40 40M640 600l40 40M720 600l-40 40M720 600l40 40M760 600l40 40M840 600l-40 40M880 600l-40 40M920 600l-40 40M960 600l-40 40M960 600l40 40M1000 600l40 40M1080 600l-40 40M1120 600l-40 40M1120 600l40 40M1200 600l-40 40M1240 600l-40 40M1240 600l40 40M1320 600l-40 40M1360 600l-40 40M1360 600l40 40M1440 600l-40 40" opacity=".76"/><path d="m0 640 40 40M40 640l40 40M80 640l40 40M120 640l40 40M200 640l-40 40M200 640l40 40M240 640l40 40M280 640l40 40M360 640l-40 40M400 640l-40 40M400 640l40 40M480 640l-40 40M480 640l40 40M560 640l-40 40M600 640l-40 40M640 640l-40 40M680 640l-40 40M680 640l40 40M760 640l-40 40M800 640l-40 40M800 640l40 40M840 640l40 40M920 640l-40 40M960 640l-40 40M1000 640l-40 40M1000 640l40 40M1040 640l40 40M1080 640l40 40M1160 640l-40 40M1200 640l-40 40M1200 640l40 40M1240 640l40 40M1280 640l40 40M1360 640l-40 40M1400 640l-40 40M1440 640l-40 40" opacity=".81"/><path d="m0 680 40 40M80 680l-40 40M80 680l40 40M120 680l40 40M200 680l-40 40M240 680l-40 40M280 680l-40 40M320 680l-40 40M320 680l40 40M360 680l40 40M400 680l40 40M440 680l40 40M480 680l40 40M520 680l40 40M600 680l-40 40M640 680l-40 40M680 680l-40 40M720 680l-40 40M720 680l40 40M800 680l-40 40M840 680l-40 40M880 680l-40 40M880 680l40 40M960 680l-40 40M960 680l40 40M1000 680l40 40M1040 680l40 40M1080 680l40 40M1160 680l-40 40M1160 680l40 40M1240 680l-40 40M1240 680l40 40M1320 680l-40 40M1360 680l-40 40M1400 680l-40 40M1400 680l40 40" opacity=".86"/><path d="m0 720 40 40M80 720l-40 40M120 720l-40 40M160 720l-40 40M200 720l-40 40M200 720l40 40M280 720l-40 40M280 720l40 40M360 720l-40 40M360 720l40 40M400 720l40 40M440 720l40 40M520 720l-40 40M520 720l40 40M560 720l40 40M600 720l40 40M640 720l40 40M680 720l40 40M720 720l40 40M800 720l-40 40M840 720l-40 40M840 720l40 40M920 720l-40 40M920 720l40 40M1000 720l-40 40M1040 720l-40 40M1040 720l40 40M1080 720l40 40M1120 720l40 40M1160 720l40 40M1200 720l40 40M1240 720l40 40M1280 720l40 40M1360 720l-40 40M1360 720l40 40M1400 720l40 40" opacity=".91"/><path d="m0 760 40 40M40 760l40 40M80 760l40 40M120 760l40 40M160 760l40 40M240 760l-40 40M280 760l-40 40M320 760l-40 40M360 760l-40 40M360 760l40 40M440 760l-40 40M440 760l40 40M480 760l40 40M520 760l40 40M560 760l40 40M640 760l-40 40M640 760l40 40M680 760l40 40M760 760l-40 40M800 760l-40 40M800 760l40 40M840 760l40 40M920 760l-40 40M960 760l-40 40M1000 760l-40 40M1000 760l40 40M1040 760l40 40M1080 760l40 40M1160 760l-40 40M1200 760l-40 40M1240 760l-40 40M1280 760l-40 40M1280 760l40 40M1360 760l-40 40M1400 760l-40 40M1400 760l40 40" opacity=".95"/><path d="m0 800 40 40M40 800l40 40M120 800l-40 40M120 800l40 40M160 800l40 40M240 800l-40 40M240 800l40 40M280 800l40 40M320 800l40 40M400 800l-40 40M440 800l-40 40M440 800l40 40M520 800l-40 40M520 800l40 40M600 800l-40 40M600 800l40 40M640 800l40 40M720 800l-40 40M720 800l40 40M800 800l-40 40M840 800l-40 40M840 800l40 40M880 800l40 40M960 800l-40 40M960 800l40 40M1040 800l-40 40M1080 800l-40 40M1080 800l40 40M1160 800l-40 40M1160 800l40 40M1200 800l40 40M1280 800l-40 40M1280 800l40 40M1320 800l40 40M1360 800l40 40M1400 800l40 40"/></g></svg>