<svg xmlns="http://www.w3.org/2000/svg" viewBox="0 0 1422 800"><defs><linearGradient id="a" x1="50%" x2="50%" y1="0%" y2="100%"><stop offset="0%" stop-color="hsl(105, 60%, 66%)"/><stop offset="100%" stop-color="hsl(105, 69%, 60%)"/></linearGradient></defs><g fill="none" stroke="url(#a)" stroke-linecap="round"><path d="M0 1500Q355.5 10 711 400t711 1100" opacity=".99"/><path d="M0 1440Q355.5 10 711 400t711 1040" opacity=".64"/><path d="M0 1380Q355.5 10 711 400t711 980" opacity=".15"/><path d="M0 1320Q355.5 10 711 400t711 920" opacity=".8"/><path d="M0 1260Q355.5 10 711 400t711 860" opacity=".83"/><path d="M0 1200Q355.5 10 711 400t711 800" opacity=".11"/><path d="M0 1140Q355.5 10 711 400t711 740" opacity=".51"/><path d="M0 1080Q355.5 10 711 400t711 680" opacity=".3"/><path d="M0 1020Q355.5 10 711 400t711 620" opacity=".09"/><path d="M0 960Q355.5 10 711 400t711 560" opacity=".32"/><path d="M0 900Q355.5 10 711 400t711 500" opacity=".52"/><path d="M0 840Q355.5 10 711 400t711 440" opacity=".87"/><path d="M0 780Q355.5 10 711 400t711 380" opacity=".74"/><path d="M0 720Q355.5 10 711 400t711 320" opacity=".39"/><path d="M0 660Q355.5 10 711 400t711 260" opacity=".65"/><path d="M0 600Q355.5 10 711 400t711 200" opacity=".82"/><path d="M0 540Q355.5 10 711 400t711 140" opacity=".31"/><path d="M0 480q355.5-470 711-80t711 80" opacity=".65"/><path d="M0 420q355.5-410 711-20t711 20" opacity=".53"/><path d="M0 360q355.5-350 711 40t711-40" opacity=".07"/><path d="M0 300Q355.5 10 711 400t711-100" opacity=".43"/><path d="M0 240Q355.5 10 711 400t711-160" opacity=".13"/><path d="M0 180Q355.5 10 711 400t711-220" opacity=".96"/><path d="M0 120Q355.5 10 711 400t711-280" opacity=".81"/></g></svg>